<svg width="16" height="16" viewBox="0 0 16 16" fill="none" xmlns="http://www.w3.org/2000/svg">
<path fill-rule="evenodd" clip-rule="evenodd" d="M0.625 1.5C0.625 1.01675 1.01675 0.625 1.5 0.625H6.5C6.98325 0.625 7.375 1.01675 7.375 1.5V6.5C7.375 6.98325 6.98325 7.375 6.5 7.375H1.5C1.01675 7.375 0.625 6.98325 0.625 6.5V1.5ZM1.5 1.375C1.43096 1.375 1.375 1.43096 1.375 1.5V6.5C1.375 6.56904 1.43096 6.625 1.5 6.625H6.5C6.56904 6.625 6.625 6.56904 6.625 6.5V1.5C6.625 1.43096 6.56904 1.375 6.5 1.375H1.5ZM8.625 1.5C8.625 1.01675 9.01675 0.625 9.5 0.625H14.5C14.9832 0.625 15.375 1.01675 15.375 1.5V6.5C15.375 6.98325 14.9832 7.375 14.5 7.375H9.5C9.01675 7.375 8.625 6.98325 8.625 6.5V1.5ZM9.5 1.375C9.43096 1.375 9.375 1.43096 9.375 1.5V6.5C9.375 6.56904 9.43096 6.625 9.5 6.625H14.5C14.569 6.625 14.625 6.56904 14.625 6.5V1.5C14.625 1.43096 14.569 1.375 14.5 1.375H9.5ZM1.5 8.625C1.01675 8.625 0.625 9.01675 0.625 9.5V14.5C0.625 14.9832 1.01675 15.375 1.5 15.375H6.5C6.98325 15.375 7.375 14.9832 7.375 14.5V9.5C7.375 9.01675 6.98325 8.625 6.5 8.625H1.5ZM1.375 9.5C1.375 9.43096 1.43096 9.375 1.5 9.375H6.5C6.56904 9.375 6.625 9.43096 6.625 9.5V14.5C6.625 14.569 6.56904 14.625 6.5 14.625H1.5C1.43096 14.625 1.375 14.569 1.375 14.5V9.5ZM12.375 9C12.5821 9 12.75 9.16789 12.75 9.375V11.8125H15.1873C15.3944 11.8125 15.5623 11.9804 15.5623 12.1875C15.5623 12.3946 15.3944 12.5625 15.1873 12.5625H12.75V15C12.75 15.2071 12.5821 15.375 12.375 15.375C12.1679 15.375 12 15.2071 12 15V12.5625H9.56232C9.35521 12.5625 9.18732 12.3946 9.18732 12.1875C9.18732 11.9804 9.35521 11.8125 9.56232 11.8125H12V9.375C12 9.16789 12.1679 9 12.375 9Z" fill="black"/>
</svg>
