<svg width="18" height="20" viewBox="0 0 18 20" fill="none" xmlns="http://www.w3.org/2000/svg">
<path fill-rule="evenodd" clip-rule="evenodd" d="M6 7.25C7.79493 7.25 9.25 5.79493 9.25 4C9.25 2.20507 7.79493 0.75 6 0.75C4.20507 0.75 2.75 2.20507 2.75 4C2.75 5.79493 4.20507 7.25 6 7.25ZM6 8C8.20914 8 10 6.20914 10 4C10 1.79086 8.20914 0 6 0C3.79086 0 2 1.79086 2 4C2 6.20914 3.79086 8 6 8ZM2.375 8.39478C1.06332 8.39478 0 9.4581 0 10.7698V17.5754V17.9504H0.375H2.29117H8.99514L9.80664 18.7941C10.0445 19.0414 10.4401 19.0513 10.6902 18.8163C11.0893 18.4413 11.75 18.7182 11.75 19.2658C11.75 19.6069 12.0298 19.8835 12.375 19.8835H13.625C13.9702 19.8835 14.25 19.6069 14.25 19.2658C14.25 18.8192 14.7987 18.6051 15.1082 18.9269C15.346 19.1742 15.7416 19.1841 15.9918 18.9491L16.8978 18.0979C17.148 17.8629 17.158 17.4719 16.9202 17.2246C16.5422 16.8315 16.8297 16.1772 17.375 16.1772C17.7202 16.1772 18 15.9006 18 15.5595V14.324C18 13.9829 17.7202 13.7063 17.375 13.7063C16.9305 13.7063 16.7082 13.1625 17.0322 12.8581C17.2824 12.623 17.2924 12.232 17.0546 11.9848L16.1934 11.0893C15.9556 10.8421 15.56 10.8322 15.3098 11.0672C14.9107 11.4422 14.25 11.1653 14.25 10.6177C14.25 10.2766 13.9702 10 13.625 10H12.375C12.29 10 12.209 10.0168 12.1351 10.0472C11.8293 9.08882 10.9317 8.39478 9.87201 8.39478H2.375ZM11.5678 11H11.497V10.7698C11.497 9.87231 10.7695 9.14478 9.87201 9.14478H8.22544L6.4985 11.4122V14.4305C6.4985 14.6376 6.33061 14.8055 6.1235 14.8055C5.9164 14.8055 5.7485 14.6376 5.7485 14.4305V11.4122L4.02157 9.14478H2.375C1.47754 9.14478 0.75 9.87231 0.75 10.7698V17.2004H1.91617V14.4305C1.91617 14.2234 2.08406 14.0555 2.29117 14.0555C2.49827 14.0555 2.66617 14.2234 2.66617 14.4305V17.2004H8.83745C8.86918 17.1366 8.91267 17.0772 8.96782 17.0254C9.29181 16.721 9.06953 16.1772 8.625 16.1772C8.27982 16.1772 8 15.9006 8 15.5595V14.324C8 13.9829 8.27982 13.7063 8.625 13.7063C9.17033 13.7063 9.45781 13.0519 9.07979 12.6589C8.84197 12.4116 8.852 12.0206 9.10218 11.7856L10.0082 10.9344C10.2584 10.6994 10.654 10.7093 10.8918 10.9565C11.0879 11.1605 11.38 11.1492 11.5678 11ZM4.96432 9.14478L6.1235 10.6668L7.28268 9.14478H4.96432ZM10.4384 11.5592C11.1823 12.2027 12.3956 11.7595 12.4937 10.75H13.5058C13.6028 11.8446 14.8961 12.3567 15.7326 11.6922L16.4233 12.4104C15.7596 13.1736 16.2739 14.3565 17.25 14.4504V15.4326C16.1893 15.5251 15.6054 16.7847 16.2888 17.641L15.5616 18.3242C14.8177 17.6808 13.6044 18.124 13.5063 19.1335H12.4942C12.3972 18.0388 11.1039 17.5268 10.2674 18.1913L9.57667 17.4731C10.2405 16.7098 9.72611 15.527 8.75 15.4331V14.4509C9.81075 14.3584 10.3946 13.0987 9.71118 12.2425L10.4384 11.5592ZM12.5416 14.9417C12.5416 14.6981 12.7427 14.4931 13 14.4931C13.2573 14.4931 13.4583 14.6981 13.4583 14.9417C13.4583 15.1854 13.2573 15.3904 13 15.3904C12.7427 15.3904 12.5416 15.1854 12.5416 14.9417ZM13 13.7431C12.3368 13.7431 11.7916 14.2756 11.7916 14.9417C11.7916 15.6079 12.3368 16.1404 13 16.1404C13.6632 16.1404 14.2083 15.6079 14.2083 14.9417C14.2083 14.2756 13.6632 13.7431 13 13.7431ZM14.3411 12.2035C14.4439 12.0237 14.673 11.9613 14.8528 12.0641C15.7107 12.5546 16.2916 13.4739 16.2916 14.5299C16.2916 14.737 16.1237 14.9049 15.9166 14.9049C15.7095 14.9049 15.5416 14.737 15.5416 14.5299C15.5416 13.7568 15.1171 13.0791 14.4805 12.7152C14.3007 12.6124 14.2383 12.3833 14.3411 12.2035ZM15.888 15.7298C16.0783 15.8117 16.1661 16.0323 16.0842 16.2225C15.9596 16.5121 15.7882 16.7767 15.5796 17.007C15.4405 17.1605 15.2034 17.1723 15.0499 17.0333C14.8964 16.8942 14.8846 16.6571 15.0236 16.5036C15.1778 16.3334 15.3039 16.1385 15.3953 15.9261C15.4772 15.7358 15.6978 15.648 15.888 15.7298Z" fill="black"/>
</svg>
