<svg width="18" height="17" viewBox="0 0 18 17" fill="none" xmlns="http://www.w3.org/2000/svg">
<path fill-rule="evenodd" clip-rule="evenodd" d="M11.191 7.82271C11.302 7.75703 11.3714 7.63895 11.3749 7.51005C11.3783 7.38114 11.3153 7.25951 11.208 7.18798L9.70801 6.18798L9.61354 6.125H9.5H6.375V5V3V1.375H6.3794H6.38727H6.39515H6.40302H6.4109H6.41878H6.42666H6.43454H6.44242H6.4503H6.45818H6.46606H6.47394H6.48183H6.48971H6.49759H6.50547H6.51335H6.52123H6.52911H6.53699H6.54487H6.55275H6.56063H6.5685H6.57638H6.58425H6.59212H6.59999H6.60786H6.61572H6.62359H6.63145H6.63931H6.64717H6.65502H6.66288H6.67073H6.67857H6.68642H6.69426H6.7021H6.70994H6.71777H6.7256H6.73342H6.74124H6.74906H6.75688H6.76469H6.77249H6.7803H6.78809H6.79589H6.80368H6.81146H6.81924H6.82702H6.83479H6.84255H6.85031H6.85807H6.86582H6.87356H6.8813H6.88903H6.89676H6.90448H6.9122H6.91991H6.92761H6.9353H6.94299H6.95068H6.95835H6.96602H6.97369H6.98134H6.98899H6.99663H7.00426H7.01189H7.01951H7.02712H7.03472H7.04232H7.04991H7.05749H7.06506H7.07262H7.08017H7.08772H7.09526H7.10278H7.1103H7.11781H7.12531H7.13281H7.14029H7.14776H7.15522H7.16268H7.17012H7.17755H7.18498H7.19239H7.19979H7.20719H7.21457H7.22194H7.2293H7.23665H7.24399H7.25132H7.25864H7.26594H7.27324H7.28052H7.28779H7.29505H7.3023H7.30954H7.31676H7.32397H7.33117H7.33836H7.34554H7.3527H7.35985H7.36698H7.37411H7.38122H7.38832H7.3954H7.40247H7.40953H7.41657H7.4236H7.43062H7.43762H7.44461H7.45159H7.45855H7.46549H7.47242H7.47934H7.48624H7.49313H7.5C7.70711 1.375 7.875 1.20711 7.875 1C7.875 0.792893 7.70711 0.625 7.5 0.625H7.49313H7.48624H7.47934H7.47242H7.46549H7.45855H7.45159H7.44461H7.43762H7.43062H7.4236H7.41657H7.40953H7.40247H7.3954H7.38832H7.38122H7.37411H7.36698H7.35985H7.3527H7.34554H7.33836H7.33117H7.32397H7.31676H7.30954H7.3023H7.29505H7.28779H7.28052H7.27324H7.26594H7.25864H7.25132H7.24399H7.23665H7.2293H7.22194H7.21457H7.20719H7.19979H7.19239H7.18498H7.17755H7.17012H7.16268H7.15522H7.14776H7.14029H7.13281H7.12531H7.11781H7.1103H7.10278H7.09526H7.08772H7.08017H7.07262H7.06506H7.05749H7.04991H7.04232H7.03472H7.02712H7.01951H7.01189H7.00426H6.99663H6.98899H6.98134H6.97369H6.96602H6.95835H6.95068H6.94299H6.9353H6.92761H6.91991H6.9122H6.90448H6.89676H6.88903H6.8813H6.87356H6.86582H6.85807H6.85031H6.84255H6.83479H6.82702H6.81924H6.81146H6.80368H6.79589H6.78809H6.7803H6.77249H6.76469H6.75688H6.74906H6.74124H6.73342H6.7256H6.71777H6.70994H6.7021H6.69426H6.68642H6.67857H6.67073H6.66288H6.65502H6.64717H6.63931H6.63145H6.62359H6.61572H6.60786H6.59999H6.59212H6.58425H6.57638H6.5685H6.56063H6.55275H6.54487H6.53699H6.52911H6.52123H6.51335H6.50547H6.49759H6.48971H6.48183H6.47394H6.46606H6.45818H6.4503H6.44242H6.43454H6.42666H6.41878H6.4109H6.40302H6.39515H6.38727H6.3794H6.37153H6.36366H6.35579H6.34792H6.34005H6.33219H6.32433H6.31647H6.30861H6.30076H6.29291H6.28506H6.27721H6.26937H6.26153H6.25369H6.24585H6.23802H6.23019H6.22237H6.21455H6.20673H6.19892H6.19111H6.1833H6.1755H6.16771H6.15991H6.15213H6.14434H6.13657H6.12879H6.12102H6.11326H6.1055H6.09775H6.09H6.08226H6.07452H6.06679H6.05907H6.05135H6.04364H6.03593H6.02823H6.02054H6.01285H6.00517H5.99749H5.98983H5.98217H5.97451H5.96687H5.95923H5.9516H5.94397H5.93636H5.92875H5.92115H5.91356H5.90597H5.8984H5.89083H5.88327H5.87572H5.86818H5.86064H5.85312H5.8456H5.83809H5.8306H5.82311H5.81563H5.80816H5.8007H5.79325H5.78581H5.77838H5.77096H5.76355H5.75615H5.74876H5.74138H5.73401H5.72666H5.71931H5.71198H5.70465H5.69734H5.69004H5.68275H5.67547H5.6682H5.66094H5.6537H5.64647H5.63925H5.63204H5.62485H5.61766H5.61049H5.60333H5.59619H5.58906H5.58194H5.57483H5.56774H5.56066H5.55359H5.54654H5.5395H5.53248H5.52547H5.51847H5.51148H5.50452H5.49756H5.49062H5.48369H5.47678H5.46989H5.463H5.45614H5.44929H5.44245H5.43563H5.42882H5.42203H5.41526H5.4085H5.40176H5.39503H5.38832H5.38162H5.37494H5.36828H5.36164H5.35501H5.34839H5.3418H5.33522H5.32866H5.32211H5.31559H5.30908H5.30259H5.29611H5.28966H5.28322H5.2768H5.27039H5.26401H5.25764H5.25129H5.24497H5.23865H5.23236H5.22609H5.21984H5.2136H5.20738H5.20119H5.19501H5.18885H5.18271H5.1766H5.1705H5.16442H5.15836H5.15232H5.14631H5.14031H5.13433H5.12837H5.12244H5.11652H5.11063H5.10476H5.09891H5.09308H5.08727H5.08148H5.07571H5.06997H5.06425H5.05855H5.05287H5.04721H5.04158H5.03597H5.03038H5.02481H5.01927H5.01375H5.00825H5.00278H4.99733H4.9919H4.9865H4.98111H4.97576H4.97042H4.96511H4.95983H4.95457H4.94933H4.94411H4.93893H4.93376H4.92862H4.92351H4.91842H4.91335H4.90831H4.9033H4.89831H4.89334H4.8884H4.88349H4.8786H4.87374H4.86891H4.8641H4.85931H4.85456H4.84983H4.84512H4.84045H4.83579H4.83117H4.82657H4.822H4.81746H4.81295H4.80846H4.804H4.79956H4.79516H4.79078H4.78643H4.78211H4.77782H4.77355H4.76932H4.76511H4.76093H4.75678H4.75266H4.74857H4.7445H4.74047H4.73646H4.73249H4.72854H4.72463H4.72074H4.71688H4.71306H4.70926H4.70549H4.70176H4.69805H4.69438H4.69073H4.68712H4.68353H4.67998H4.67646H4.67297H4.66951H4.66608H4.66269H4.65932H4.65599H4.65269H4.64942H4.64619H4.64298H4.63981H4.63667H4.63356H4.63049H4.62745H4.62444H4.62146H4.61852H4.61561H4.61273H4.60989H4.60708H4.6043H4.60156H4.59885H4.59618H4.59354H4.59093H4.58836H4.58582H4.58332H4.58085H4.57842H4.57602H4.57366H4.57133H4.56904H4.56678H4.56456H4.56237H4.56022H4.5581H4.55602H4.55398H4.55197H4.55H4.54806H4.54616H4.5443H4.54247H4.54069H4.53893H4.53722H4.53554H4.5339H4.53229H4.53073H4.5292H4.52771H4.52625H4.52484H4.52346H4.52212H4.52082H4.51956H4.51833H4.51715H4.516H4.51489H4.51382H4.51279H4.5118H4.51084H4.50993H4.50906H4.50822H4.50743H4.50667H4.50596H4.50528H4.50465H4.50405H4.5035H4.50298H4.50251H4.50207H4.50168H4.50133H4.50102H4.50075H4.50052H4.50033H4.50019H4.50008H4.50002L4.5 1V0.625C4.29289 0.625 4.125 0.792893 4.125 1C4.125 1.20711 4.29289 1.375 4.5 1.375V1L4.50002 1.375H4.50008H4.50019H4.50033H4.50052H4.50075H4.50102H4.50133H4.50168H4.50207H4.50251H4.50298H4.5035H4.50405H4.50465H4.50528H4.50596H4.50667H4.50743H4.50822H4.50906H4.50993H4.51084H4.5118H4.51279H4.51382H4.51489H4.516H4.51715H4.51833H4.51956H4.52082H4.52212H4.52346H4.52484H4.52625H4.52771H4.5292H4.53073H4.53229H4.5339H4.53554H4.53722H4.53893H4.54069H4.54247H4.5443H4.54616H4.54806H4.55H4.55197H4.55398H4.55602H4.5581H4.56022H4.56237H4.56456H4.56678H4.56904H4.57133H4.57366H4.57602H4.57842H4.58085H4.58332H4.58582H4.58836H4.59093H4.59354H4.59618H4.59885H4.60156H4.6043H4.60708H4.60989H4.61273H4.61561H4.61852H4.62146H4.62444H4.62745H4.63049H4.63356H4.63667H4.63981H4.64298H4.64619H4.64942H4.65269H4.65599H4.65932H4.66269H4.66608H4.66951H4.67297H4.67646H4.67998H4.68353H4.68712H4.69073H4.69438H4.69805H4.70176H4.70549H4.70926H4.71306H4.71688H4.72074H4.72463H4.72854H4.73249H4.73646H4.74047H4.7445H4.74857H4.75266H4.75678H4.76093H4.76511H4.76932H4.77355H4.77782H4.78211H4.78643H4.79078H4.79516H4.79956H4.804H4.80846H4.81295H4.81746H4.822H4.82657H4.83117H4.83579H4.84045H4.84512H4.84983H4.85456H4.85931H4.8641H4.86891H4.87374H4.8786H4.88349H4.8884H4.89334H4.89831H4.9033H4.90831H4.91335H4.91842H4.92351H4.92862H4.93376H4.93893H4.94411H4.94933H4.95457H4.95983H4.96511H4.97042H4.97576H4.98111H4.9865H4.9919H4.99733H5.00278H5.00825H5.01375H5.01927H5.02481H5.03038H5.03597H5.04158H5.04721H5.05287H5.05855H5.06425H5.06997H5.07571H5.08148H5.08727H5.09308H5.09891H5.10476H5.11063H5.11652H5.12244H5.12837H5.13433H5.14031H5.14631H5.15232H5.15836H5.16442H5.1705H5.1766H5.18271H5.18885H5.19501H5.20119H5.20738H5.2136H5.21984H5.22609H5.23236H5.23865H5.24497H5.25129H5.25764H5.26401H5.27039H5.2768H5.28322H5.28966H5.29611H5.30259H5.30908H5.31559H5.32211H5.32866H5.33522H5.3418H5.34839H5.35501H5.36164H5.36828H5.37494H5.38162H5.38832H5.39503H5.40176H5.4085H5.41526H5.42203H5.42882H5.43563H5.44245H5.44929H5.45614H5.463H5.46989H5.47678H5.48369H5.49062H5.49756H5.50452H5.51148H5.51847H5.52547H5.53248H5.5395H5.54654H5.55359H5.56066H5.56774H5.57483H5.58194H5.58906H5.59619H5.60333H5.61049H5.61766H5.62485H5.625V2.625H2.5H2.38646L2.29199 2.68798L0.791987 3.68798C0.687663 3.75753 0.625 3.87462 0.625 4C0.625 4.12538 0.687663 4.24247 0.791987 4.31202L2.29199 5.31202L2.38646 5.375H2.5H5.625V6.5V8.3878V15.625H4.5C4.29289 15.625 4.125 15.7929 4.125 16C4.125 16.2071 4.29289 16.375 4.5 16.375H6H6.375H7.5C7.70711 16.375 7.875 16.2071 7.875 16C7.875 15.7929 7.70711 15.625 7.5 15.625H6.375V8.7628H9.5H9.60266L9.691 8.71051L11.191 7.82271ZM6.375 8.0128V6.875H9.38646L10.2956 7.48112L9.39734 8.0128H6.375ZM2.61354 3.375H5.625V4.625H2.61354L1.67604 4L2.61354 3.375ZM13.3086 8.75C12.9595 8.75 12.7015 8.87438 12.5457 9.03465H14.0715C13.9157 8.87438 13.6576 8.75 13.3086 8.75ZM13.3086 8C12.5956 8 11.8833 8.39519 11.6798 9.03465H9.875C9.39175 9.03465 9 9.4264 9 9.90965V15.1177C9 15.6009 9.39175 15.9927 9.875 15.9927H16.7421C17.2254 15.9927 17.6171 15.6009 17.6171 15.1177V9.90965C17.6171 9.4264 17.2254 9.03465 16.7421 9.03465H14.9373C14.7339 8.39519 14.0216 8 13.3086 8ZM9.875 9.78465C9.80596 9.78465 9.75 9.84061 9.75 9.90965V11.1554L12.8991 11.6213H13.718L16.8671 11.1554V9.90965C16.8671 9.84061 16.8112 9.78465 16.7421 9.78465H9.875ZM9.75 15.1177V11.9136L12.4965 12.3199V13.031C12.4965 13.2382 12.6644 13.406 12.8715 13.406H13.7456C13.9527 13.406 14.1206 13.2382 14.1206 13.031V12.3199L16.8671 11.9136V15.1177C16.8671 15.1867 16.8112 15.2427 16.7421 15.2427H9.875C9.80596 15.2427 9.75 15.1867 9.75 15.1177ZM13.3706 12.3713H13.2465V12.656H13.3706V12.3713Z" fill="black"/>
</svg>
