<svg width="16" height="16" viewBox="0 0 16 16" fill="none" xmlns="http://www.w3.org/2000/svg">
<path d="M4.875 1C4.875 0.792893 4.70711 0.625 4.5 0.625C4.29289 0.625 4.125 0.792893 4.125 1H4.875ZM4.125 3.59259C4.125 3.7997 4.29289 3.96759 4.5 3.96759C4.70711 3.96759 4.875 3.7997 4.875 3.59259H4.125ZM11.875 1C11.875 0.792893 11.7071 0.625 11.5 0.625C11.2929 0.625 11.125 0.792893 11.125 1H11.875ZM11.125 3.59259C11.125 3.7997 11.2929 3.96759 11.5 3.96759C11.7071 3.96759 11.875 3.7997 11.875 3.59259H11.125ZM13 14.625H3V15.375H13V14.625ZM1.375 13V5.66667H0.625V13H1.375ZM1.375 5.66667V4.55555H0.625V5.66667H1.375ZM14.625 4.55556V5.66667H15.375V4.55556H14.625ZM14.625 5.66667V13H15.375V5.66667H14.625ZM1 6.04167H15V5.29167H1V6.04167ZM3 2.93056H4.5V2.18056H3V2.93056ZM4.875 2.55556V1H4.125V2.55556H4.875ZM4.125 1V3.59259H4.875V1H4.125ZM4.5 2.93056H11.5V2.18056H4.5V2.93056ZM11.5 2.93056H13V2.18056H11.5V2.93056ZM11.875 2.55556V1H11.125V2.55556H11.875ZM11.125 1V3.59259H11.875V1H11.125ZM3 14.625C2.10254 14.625 1.375 13.8975 1.375 13H0.625C0.625 14.3117 1.68832 15.375 3 15.375V14.625ZM13 15.375C14.3117 15.375 15.375 14.3117 15.375 13H14.625C14.625 13.8975 13.8975 14.625 13 14.625V15.375ZM15.375 4.55556C15.375 3.24388 14.3117 2.18056 13 2.18056V2.93056C13.8975 2.93056 14.625 3.65809 14.625 4.55556H15.375ZM1.375 4.55555C1.375 3.65809 2.10254 2.93056 3 2.93056V2.18056C1.68832 2.18056 0.625 3.24388 0.625 4.55555H1.375Z" fill="black"/>
</svg>
