<svg width="17" height="16" viewBox="0 0 17 16" fill="none" xmlns="http://www.w3.org/2000/svg">
<path fill-rule="evenodd" clip-rule="evenodd" d="M9.9403 0.103448C10.0851 -0.0344828 10.3127 -0.0344828 10.4575 0.103448L12.3068 1.8646C12.4178 1.97035 12.4533 2.13305 12.3963 2.27543C12.3394 2.4178 12.2015 2.51115 12.0481 2.51115H11.1903V4.70708H13.5224V4.07342C13.5224 3.92852 13.6058 3.79659 13.7368 3.73454C13.8677 3.67249 14.0227 3.69143 14.1348 3.78318L15.984 5.29618C16.0711 5.3674 16.1216 5.47394 16.1216 5.58641C16.1216 5.69888 16.0711 5.80542 15.984 5.87664L14.1348 7.38964C14.0227 7.48139 13.8677 7.50033 13.7368 7.43828C13.6058 7.37623 13.5224 7.2443 13.5224 7.0994V6.46574H12.6464V9.44257H14.469C14.6761 9.44257 14.844 9.61047 14.844 9.81757V14.5744C14.844 14.7815 14.6761 14.9494 14.469 14.9494H12.8542H9.32516C9.30915 14.9837 9.28788 15.0158 9.26178 15.0442C9.19075 15.1217 9.09046 15.1659 8.98533 15.1659H6.11522H3.24511H0.375001C0.269875 15.1659 0.169576 15.1217 0.0985459 15.0442C0.0275163 14.9667 -0.00772065 14.863 0.00142219 14.7582L0.295552 11.3891C0.494054 9.11532 2.39777 7.37056 4.68018 7.37056C6.24644 7.37056 7.63437 8.19219 8.4153 9.44257H8.54786H9.20752V2.51115H8.34971C8.19637 2.51115 8.05848 2.4178 8.00153 2.27543C7.94458 2.13305 7.98005 1.97035 8.09109 1.8646L9.9403 0.103448ZM9.28721 1.76115H9.58252H9.95752V2.13615V9.24606H10.4403V2.13615V1.76115H10.8153H11.1106L10.1989 0.892857L9.28721 1.76115ZM4.68022 1.07529C3.29572 1.07529 2.18511 2.17554 2.18511 3.51841C2.18511 4.86127 3.29572 5.96152 4.68022 5.96152C6.06472 5.96152 7.17533 4.86127 7.17533 3.51841C7.17533 2.17554 6.06472 1.07529 4.68022 1.07529ZM1.43511 3.51841C1.43511 1.74846 2.89449 0.325291 4.68022 0.325291C6.46595 0.325291 7.92533 1.74846 7.92533 3.51841C7.92533 5.28835 6.46595 6.71152 4.68022 6.71152C2.89449 6.71152 1.43511 5.28835 1.43511 3.51841ZM2.89527 8.58613C1.87358 9.15951 1.15119 10.2117 1.04271 11.4543L0.784165 14.4159H2.9284L3.57706 10.5944L2.89527 8.58613ZM6.46507 8.58611L5.78328 10.5944L6.43193 14.4159H8.57617L8.31766 11.4544C8.20919 10.2117 7.48678 9.1595 6.46507 8.58611ZM5.6712 14.4159L5.08098 10.9387H4.27935L3.68913 14.4159H5.6712ZM4.23135 10.1887H5.12898L5.66153 8.61997C5.23622 8.38889 4.92307 8.3067 4.64249 8.3136C4.36461 8.32043 4.07624 8.41523 3.69906 8.62073L4.23135 10.1887ZM9.09061 11.5567L8.96037 10.1926H13.8573L13.1626 11.5567H11.7776H10.701H9.09061ZM13.7266 12.1019L14.094 11.3804V14.1994H12.8542H9.41643L9.17548 12.3067H10.326V12.9888C10.326 13.1959 10.4939 13.3638 10.701 13.3638H11.7776C11.9847 13.3638 12.1526 13.1959 12.1526 12.9888V12.3067H13.3925C13.5335 12.3067 13.6626 12.2276 13.7266 12.1019ZM11.076 12.6138V12.3067H11.4026V12.6138H11.076ZM14.2724 5.08208V4.86476L15.1544 5.58641L14.2724 6.30806V6.09074V5.71574H13.8974H12.2714H11.8964V6.09074V9.24606H11.4985V5.45708H13.8974H14.2724V5.08208Z" fill="black"/>
</svg>
