<svg width="13" height="9" viewBox="0 0 13 9" fill="none" xmlns="http://www.w3.org/2000/svg">
<path d="M12.2652 0.765165C12.4116 0.618718 12.4116 0.381282 12.2652 0.234835C12.1187 0.0883884 11.8813 0.0883884 11.7348 0.234835L12.2652 0.765165ZM4.50001 7.99999L4.23485 8.26515C4.38129 8.4116 4.61873 8.4116 4.76518 8.26515L4.50001 7.99999ZM1.26516 4.23483C1.11872 4.08839 0.88128 4.08839 0.734834 4.23484C0.588388 4.38128 0.588389 4.61872 0.734836 4.76517L1.26516 4.23483ZM11.7348 0.234835L4.23485 7.73482L4.76518 8.26515L12.2652 0.765165L11.7348 0.234835ZM4.76518 7.73482L1.26516 4.23483L0.734836 4.76517L4.23485 8.26515L4.76518 7.73482Z" fill="black"/>
</svg>
