<svg width="12" height="12" viewBox="0 0 12 12" fill="none" xmlns="http://www.w3.org/2000/svg">
<path fill-rule="evenodd" clip-rule="evenodd" d="M5.46967 5.99999L0.989081 1.5194C0.842635 1.37296 0.842635 1.13552 0.989081 0.989072C1.13553 0.842626 1.37296 0.842626 1.51941 0.989072L6.00001 5.46967L10.4806 0.989072C10.6271 0.842626 10.8645 0.842626 11.0109 0.989072C11.1574 1.13552 11.1574 1.37296 11.0109 1.5194L6.53033 6.00001L11.0109 10.4806C11.1574 10.627 11.1574 10.8645 11.0109 11.0109C10.8645 11.1574 10.627 11.1574 10.4806 11.0109L5.99999 6.53033L1.51939 11.0109C1.37295 11.1574 1.13551 11.1574 0.989063 11.0109C0.842617 10.8645 0.842617 10.627 0.989063 10.4806L5.46967 5.99999Z" fill="black"/>
</svg>
