<svg width="15" height="17" viewBox="0 0 15 17" fill="none" xmlns="http://www.w3.org/2000/svg">
<path fill-rule="evenodd" clip-rule="evenodd" d="M5.59286 7.44616L5.56068 7.66557L5.29357 9.48689L5.19126 10.1845C5.16621 10.3553 5.31517 10.5004 5.48311 10.4688L6.16912 10.3396L8.13175 9.97024L8.3853 9.92252L8.55531 9.72666L14.193 3.23156C14.5551 2.81448 14.5136 2.17931 14.1004 1.81287L12.8043 0.663499C12.3911 0.297061 11.7626 0.338116 11.4006 0.755196L5.73753 7.27949L5.59286 7.44616ZM13.6319 2.73394L7.99417 9.22904L6.8073 9.45243L6.03155 9.59844L6.14724 8.80956L6.29866 7.77711L11.9617 1.25282C12.0522 1.14855 12.2093 1.13828 12.3126 1.22989L13.6087 2.37927C13.712 2.47088 13.7224 2.62967 13.6319 2.73394ZM1.375 3.00001C1.375 2.65483 1.65482 2.375 2 2.375H7C7.20711 2.375 7.375 2.20711 7.375 2C7.375 1.7929 7.20711 1.625 7 1.625H2C1.24061 1.625 0.625 2.24061 0.625 3.00001V15C0.625 15.7594 1.24061 16.375 2 16.375H12C12.7594 16.375 13.375 15.7594 13.375 15V7C13.375 6.7929 13.2071 6.625 13 6.625C12.7929 6.625 12.625 6.7929 12.625 7V15C12.625 15.3452 12.3452 15.625 12 15.625H2C1.65482 15.625 1.375 15.3452 1.375 15V3.00001Z" fill="black"/>
</svg>
