<svg width="20" height="18" viewBox="0 0 20 18" fill="none" xmlns="http://www.w3.org/2000/svg">
<path fill-rule="evenodd" clip-rule="evenodd" d="M4.96393 0.0250854C3.92839 0.0250854 3.08893 0.864551 3.08893 1.90009V2.7091V3.1709V3.5459V5.87823V5.94171H3.08978C3.12508 7.25155 4.25015 8.25264 5.61461 8.41985H2.42993C1.11826 8.41985 0.0549316 9.48318 0.0549316 10.7949V17.6005V17.9755H0.429932H2.3461H7.7196H8.0946H10.0108H17.5H19.5916H19.9666V17.6005V10.7949C19.9666 9.48317 18.9033 8.41985 17.5916 8.41985H14.2165C15.0089 8.34514 15.6945 8.10336 16.2157 7.73352C16.8356 7.29372 17.2292 6.6644 17.251 5.94171H17.252V5.87823V3.08063C17.6435 2.73698 17.8907 2.2328 17.8907 1.6709V0.400085V0.0250854H17.5157H12.6285C11.5929 0.0250854 10.7535 0.864552 10.7535 1.90009V2.7091V3.1709V3.5459V5.87823V5.94171H10.7543C10.7896 7.25155 11.9147 8.25264 13.2792 8.41985H10.0946C10.0745 8.41985 10.0545 8.4201 10.0346 8.42059C10.0267 8.4201 10.0188 8.41985 10.0108 8.41985H6.55191C7.34439 8.34514 8.02993 8.10336 8.55119 7.73352C9.17105 7.29372 9.56466 6.6644 9.58647 5.94171H9.58743V5.87823V3.08063C9.97898 2.73698 10.2262 2.2328 10.2262 1.6709V0.400085V0.0250854H9.85115H4.96393ZM8.36254 9.16985H8.28037L6.55344 11.4373V14.4556C6.55344 14.6627 6.38554 14.8306 6.17844 14.8306C5.97133 14.8306 5.80344 14.6627 5.80344 14.4556V11.4373L4.0765 9.16985H2.42993C1.53247 9.16985 0.804932 9.89739 0.804932 10.7949V17.2255H1.9711V14.4556C1.9711 14.2485 2.13899 14.0806 2.3461 14.0806C2.55321 14.0806 2.7211 14.2485 2.7211 14.4556V17.2255H7.7196V10.7949C7.7196 10.1662 7.96382 9.59468 8.36254 9.16985ZM8.83743 5.87823V3.48222C8.68235 3.52375 8.51934 3.5459 8.35115 3.5459H3.83893V5.87823C3.83893 6.82937 4.75881 7.69449 6.01882 7.69449C6.91621 7.69449 7.63434 7.46444 8.11719 7.12185C8.59701 6.7814 8.83743 6.33914 8.83743 5.87823ZM3.83893 2.7959V2.7091V1.90009C3.83893 1.27876 4.34261 0.775085 4.96393 0.775085H9.47615V1.6709C9.47615 2.29222 8.97247 2.7959 8.35115 2.7959H3.83893ZM5.01926 9.16985L6.17844 10.6918L7.33761 9.16985H5.01926ZM16.502 5.87823V3.48222C16.3469 3.52375 16.1839 3.5459 16.0157 3.5459H11.5035V5.87823C11.5035 6.82937 12.4234 7.69449 13.6834 7.69449C14.5808 7.69449 15.2989 7.46444 15.7817 7.12185C16.2616 6.7814 16.502 6.33914 16.502 5.87823ZM11.5035 2.7959V2.7091V1.90009C11.5035 1.27876 12.0072 0.775085 12.6285 0.775085H17.1407V1.6709C17.1407 2.29222 16.637 2.7959 16.0157 2.7959H11.5035ZM8.4696 10.7949C8.4696 9.89739 9.19714 9.16985 10.0946 9.16985H11.7412L13.4681 11.4373V14.4556C13.4681 14.6627 13.636 14.8306 13.8431 14.8306C14.0502 14.8306 14.2181 14.6627 14.2181 14.4556V11.4373L15.945 9.16985H17.5916C18.4891 9.16985 19.2166 9.89739 19.2166 10.7949V17.2255H17.875V12C17.875 11.7929 17.7071 11.625 17.5 11.625C17.2929 11.625 17.125 11.7929 17.125 12V17.2255H10.3858V14.4556C10.3858 14.2485 10.2179 14.0806 10.0108 14.0806C9.80367 14.0806 9.63577 14.2485 9.63577 14.4556V17.2255H8.4696V10.7949ZM12.6839 9.16985L13.8431 10.6918L15.0023 9.16985H12.6839Z" fill="black"/>
</svg>
