<svg width="16" height="9" viewBox="0 0 16 9" fill="none" xmlns="http://www.w3.org/2000/svg">
<path d="M8 8L7.73484 8.26517C7.88128 8.41161 8.11872 8.41161 8.26516 8.26517L8 8ZM1.26517 0.734835C1.11872 0.588388 0.881282 0.588388 0.734835 0.734835C0.588388 0.881281 0.588388 1.11872 0.734835 1.26516L1.26517 0.734835ZM15.2652 1.26516C15.4116 1.11872 15.4116 0.881281 15.2652 0.734835C15.1187 0.588388 14.8813 0.588388 14.7348 0.734835L15.2652 1.26516ZM8.26516 7.73483L1.26517 0.734835L0.734835 1.26516L7.73484 8.26517L8.26516 7.73483ZM14.7348 0.734835L7.73484 7.73483L8.26516 8.26517L15.2652 1.26516L14.7348 0.734835Z" fill="black"/>
</svg>
