<svg width="18" height="18" viewBox="0 0 18 18" fill="none" xmlns="http://www.w3.org/2000/svg">
<path fill-rule="evenodd" clip-rule="evenodd" d="M13.75 0.75H14H16H16.25V1V16.75H17C17.1381 16.75 17.25 16.8619 17.25 17C17.25 17.1381 17.1381 17.25 17 17.25H16.25H16H14H13.75H12.25H12H10H9.75H8.25H8H6H5.75H4.25H4H2H1.75H1C0.861929 17.25 0.75 17.1381 0.75 17C0.75 16.8619 0.861929 16.75 1 16.75H1.75V10V9.75H2H4H4.25V10V16.75H5.75V7V6.75H6H8H8.25V7V16.75H9.75V4V3.75H10H12H12.25V4V16.75H13.75V1V0.75ZM14.25 16.75H15.75V1.25H14.25V16.75ZM11.75 16.75V4.25H10.25V16.75H11.75ZM7.75 16.75V7.25H6.25V16.75H7.75ZM3.75 16.75V10.25H2.25V16.75H3.75Z" fill="black"/>
</svg>
