<svg width="16" height="16" viewBox="0 0 16 16" fill="none" xmlns="http://www.w3.org/2000/svg">
<circle cx="8" cy="8" r="7" stroke="black" stroke-width="0.75"/>
<path d="M7.92894 6.39016C7.81448 6.39016 7.71848 6.35139 7.64094 6.27385C7.5634 6.19631 7.52463 6.10031 7.52463 5.98585C7.52463 5.87139 7.5634 5.77539 7.64094 5.69785C7.71848 5.62031 7.81448 5.58155 7.92894 5.58155C8.03971 5.58155 8.13386 5.62031 8.2114 5.69785C8.28894 5.77539 8.32771 5.87139 8.32771 5.98585C8.32771 6.10031 8.28894 6.19631 8.2114 6.27385C8.13386 6.35139 8.03971 6.39016 7.92894 6.39016ZM8.23909 6.79447V9.84616H7.60771V6.79447H8.23909Z" fill="black"/>
</svg>
