<svg width="15" height="18" viewBox="0 0 15 18" fill="none" xmlns="http://www.w3.org/2000/svg">
<path fill-rule="evenodd" clip-rule="evenodd" d="M1.18056 1.375C1.18056 0.615608 1.79617 0 2.55556 0H12.3613C13.1207 0 13.7363 0.615609 13.7363 1.375V9H14.0419C14.5251 9 14.9169 9.39175 14.9169 9.875V16.875C14.9169 17.3582 14.5251 17.75 14.0419 17.75H0.875C0.391752 17.75 0 17.3582 0 16.875V9.375V8.375C0 7.89175 0.391751 7.5 0.875 7.5H1.18056V1.375ZM12.9863 1.375V9H11.2556L10.8835 8.05458C10.7519 7.71998 10.4289 7.5 10.0693 7.5H6.52063C6.25238 7.5 5.99895 7.62305 5.83304 7.83384L5.46883 8.2966C5.42918 7.85008 5.05412 7.5 4.59729 7.5H1.93056V1.375C1.93056 1.02982 2.21038 0.75 2.55556 0.75H12.3613C12.7065 0.75 12.9863 1.02982 12.9863 1.375ZM0.875 8.25C0.805964 8.25 0.75 8.30596 0.75 8.375V9.375V16.875C0.75 16.944 0.805964 17 0.875 17H14.0419C14.1109 17 14.1669 16.944 14.1669 16.875V9.875C14.1669 9.80596 14.1109 9.75 14.0419 9.75H11.0002H5.09729H4.72229V9.375V8.375C4.72229 8.30596 4.66633 8.25 4.59729 8.25H0.875ZM10.4496 9L10.1856 8.32923C10.1668 8.28143 10.1207 8.25 10.0693 8.25H6.52063C6.4823 8.25 6.4461 8.26758 6.4224 8.29769L5.86965 9H10.4496ZM5.40643 2.24219H4.96698V3.71875C4.96698 3.8252 4.94208 3.90723 4.89227 3.96484C4.84247 4.02246 4.77557 4.05127 4.69159 4.05127C4.59686 4.05127 4.52753 4.02637 4.48358 3.97656C4.43964 3.92676 4.41766 3.84961 4.41766 3.74512H3.97528C3.97528 3.95508 4.03827 4.11768 4.16425 4.23291C4.29022 4.34717 4.466 4.4043 4.69159 4.4043C4.82929 4.4043 4.95282 4.37598 5.0622 4.31934C5.17157 4.2627 5.25604 4.18262 5.31561 4.0791C5.37616 3.97461 5.40643 3.85449 5.40643 3.71875V2.24219ZM7.42352 3.90918C7.49774 3.75098 7.53485 3.56689 7.53485 3.35693V3.26172C7.53485 3.05273 7.49677 2.86865 7.42059 2.70947C7.3454 2.54932 7.23847 2.42676 7.09979 2.3418C6.9621 2.25586 6.80438 2.21289 6.62665 2.21289C6.44891 2.21289 6.29071 2.25586 6.15204 2.3418C6.01434 2.42676 5.90741 2.54932 5.83124 2.70947C5.75604 2.86865 5.71845 3.05322 5.71845 3.26318V3.36865C5.71942 3.57373 5.758 3.75537 5.83417 3.91357C5.91034 4.0708 6.01776 4.19189 6.15643 4.27686C6.29511 4.36182 6.45282 4.4043 6.62958 4.4043C6.80829 4.4043 6.96649 4.36133 7.10419 4.27539C7.24286 4.18945 7.34931 4.06738 7.42352 3.90918ZM6.96942 2.75049C7.0495 2.8667 7.08954 3.03662 7.08954 3.26025V3.36426C7.08856 3.58594 7.04852 3.75488 6.96942 3.87109C6.89032 3.98633 6.77704 4.04395 6.62958 4.04395C6.47919 4.04395 6.36395 3.98389 6.28388 3.86377C6.2038 3.74365 6.16376 3.57471 6.16376 3.35693V3.25293C6.16473 3.03125 6.20526 2.86328 6.28534 2.74902C6.36542 2.63379 6.47919 2.57617 6.62665 2.57617C6.77509 2.57617 6.88934 2.63428 6.96942 2.75049ZM7.85419 2.24219V4.375H8.68329C8.92548 4.37305 9.112 4.31934 9.24286 4.21387C9.37372 4.1084 9.43915 3.95312 9.43915 3.74805C9.43915 3.62793 9.40741 3.52637 9.34393 3.44336C9.28143 3.36035 9.1955 3.30518 9.08612 3.27783C9.18182 3.24072 9.25653 3.18262 9.31024 3.10352C9.36395 3.02344 9.39081 2.93115 9.39081 2.82666C9.39081 2.63525 9.32391 2.49023 9.19013 2.3916C9.05634 2.29199 8.86005 2.24219 8.60126 2.24219H7.85419ZM8.29364 4.02197V3.44629H8.69647C8.89862 3.44922 8.9997 3.54834 8.9997 3.74365C8.9997 3.83057 8.9704 3.89893 8.91181 3.94873C8.85419 3.99756 8.77362 4.02197 8.67011 4.02197H8.29364ZM8.61884 3.13574H8.29364V2.59814H8.60126C8.72235 2.59814 8.81073 2.61963 8.86639 2.6626C8.92304 2.70459 8.95136 2.77393 8.95136 2.87061C8.95136 3.04346 8.84052 3.13184 8.61884 3.13574ZM3.91669 6.125C3.91669 5.98693 4.02862 5.875 4.16669 5.875H10.7501C10.8882 5.875 11.0001 5.98693 11.0001 6.125C11.0001 6.26307 10.8882 6.375 10.7501 6.375H4.16669C4.02862 6.375 3.91669 6.26307 3.91669 6.125ZM4.16669 6.875C4.02862 6.875 3.91669 6.98693 3.91669 7.125C3.91669 7.26307 4.02862 7.375 4.16669 7.375H10.7501C10.8882 7.375 11.0001 7.26307 11.0001 7.125C11.0001 6.98693 10.8882 6.875 10.7501 6.875H4.16669Z" fill="black"/>
</svg>
