<svg width="20" height="18" viewBox="0 0 20 18" fill="none" xmlns="http://www.w3.org/2000/svg">
<path fill-rule="evenodd" clip-rule="evenodd" d="M7.42649 2.91071C7.52377 2.56045 7.75663 2.2339 8.10595 1.96776C8.57786 1.60821 9.24626 1.375 10 1.375C10.7537 1.375 11.4221 1.60821 11.8941 1.96776C12.2434 2.2339 12.4762 2.56045 12.5735 2.91071H7.42649ZM6.65789 2.91071C6.7669 2.2954 7.13883 1.76173 7.65141 1.37118C8.26529 0.903468 9.09689 0.625 10 0.625C10.9031 0.625 11.7347 0.903468 12.3486 1.37118C12.8612 1.76173 13.2331 2.2954 13.3421 2.91071H18.5C18.9832 2.91071 19.375 3.30246 19.375 3.78571V16.5C19.375 16.9832 18.9832 17.375 18.5 17.375H1.5C1.01675 17.375 0.625 16.9832 0.625 16.5V3.78571C0.625 3.30246 1.01675 2.91071 1.5 2.91071H6.65789ZM1.375 3.78571C1.375 3.71667 1.43096 3.66071 1.5 3.66071H18.5C18.569 3.66071 18.625 3.71667 18.625 3.78571V7.53188L10.9733 8.62497H9.02665L1.375 7.53188V3.78571ZM1.375 8.2895V16.5C1.375 16.569 1.43096 16.625 1.5 16.625H18.5C18.569 16.625 18.625 16.569 18.625 16.5V8.2895L11.375 9.32521V11.2857C11.375 11.4928 11.2071 11.6607 11 11.6607H9C8.79289 11.6607 8.625 11.4928 8.625 11.2857V9.32521L1.375 8.2895ZM9.375 10.9107V9.37497H10.625V10.9107H9.375Z" fill="black"/>
</svg>
