<svg width="16" height="16" viewBox="0 0 16 16" fill="none" xmlns="http://www.w3.org/2000/svg">
<path fill-rule="evenodd" clip-rule="evenodd" d="M7.62502 8.37496L1.28851 8.37496C1.0814 8.37496 0.913508 8.20707 0.913507 7.99996C0.913508 7.79286 1.0814 7.62496 1.28851 7.62496L7.62503 7.62496L7.62503 1.28844C7.62503 1.08133 7.79292 0.913442 8.00003 0.913441C8.20714 0.913442 8.37503 1.08133 8.37503 1.28844L8.37503 7.62498L14.7115 7.62498C14.9186 7.62498 15.0865 7.79287 15.0865 7.99998C15.0865 8.20708 14.9186 8.37498 14.7115 8.37498L8.37502 8.37498L8.37502 14.7115C8.37502 14.9186 8.20712 15.0865 8.00002 15.0865C7.79291 15.0865 7.62502 14.9186 7.62502 14.7115L7.62502 8.37496Z" fill="black"/>
</svg>
