<svg width="13" height="18" viewBox="0 0 13 18" fill="none" xmlns="http://www.w3.org/2000/svg">
<path fill-rule="evenodd" clip-rule="evenodd" d="M9.25 4C9.25 5.79493 7.79493 7.25 6 7.25C4.20507 7.25 2.75 5.79493 2.75 4C2.75 2.20507 4.20507 0.75 6 0.75C7.79493 0.75 9.25 2.20507 9.25 4ZM10 4C10 6.20914 8.20914 8 6 8C3.79086 8 2 6.20914 2 4C2 1.79086 3.79086 0 6 0C8.20914 0 10 1.79086 10 4ZM0 10.7698C0 9.4581 1.06332 8.39478 2.375 8.39478H9.87201C11.1837 8.39478 12.247 9.4581 12.247 10.7698V17.5754V17.9504H11.872H9.7804H2.29117H0.375H0V17.5754V10.7698ZM2.375 9.14478C1.47754 9.14478 0.75 9.87231 0.75 10.7698V17.2004H1.91617V14.4305C1.91617 14.2234 2.08406 14.0555 2.29117 14.0555C2.49827 14.0555 2.66617 14.2234 2.66617 14.4305V17.2004H9.4054V11.9749C9.4054 11.7678 9.57329 11.5999 9.7804 11.5999C9.9875 11.5999 10.1554 11.7678 10.1554 11.9749V17.2004H11.497V10.7698C11.497 9.87231 10.7695 9.14478 9.87201 9.14478H8.22544L6.4985 11.4122V14.4305C6.4985 14.6376 6.33061 14.8055 6.1235 14.8055C5.9164 14.8055 5.7485 14.6376 5.7485 14.4305V11.4122L4.02157 9.14478H2.375ZM6.1235 10.6668L4.96432 9.14478H7.28268L6.1235 10.6668Z" fill="black"/>
</svg>
