<svg width="13" height="18" viewBox="0 0 13 18" fill="none" xmlns="http://www.w3.org/2000/svg">
<path fill-rule="evenodd" clip-rule="evenodd" d="M3.03387 1.875C3.03387 0.839466 3.87334 0 4.90887 0H9.7961H10.1711V0.375V1.64581C10.1711 2.20772 9.92393 2.71189 9.53238 3.05554V5.85315V5.91662H9.53142C9.50961 6.63931 9.11599 7.26863 8.49613 7.70844C7.97488 8.07828 7.28933 8.32005 6.49685 8.39476H9.87201C11.1837 8.39476 12.247 9.45809 12.247 10.7698V17.5754V17.9504H11.872H9.7804H2.29117H0.375H0V17.5754V10.7698C0 9.45809 1.06332 8.39476 2.375 8.39476H5.55955C4.19509 8.22756 3.07003 7.22647 3.03473 5.91662H3.03387V5.85315V3.52081V3.14581V2.68401V1.875ZM8.78238 3.45714V5.85315C8.78238 6.31405 8.54196 6.75632 8.06214 7.09676C7.57929 7.43935 6.86116 7.6694 5.96376 7.6694C4.70376 7.6694 3.78387 6.80429 3.78387 5.85315V3.52081H8.2961C8.46428 3.52081 8.62729 3.49867 8.78238 3.45714ZM3.78387 2.68401V2.77081H8.2961C8.91742 2.77081 9.4211 2.26713 9.4211 1.64581V0.75H4.90887C4.28755 0.75 3.78387 1.25368 3.78387 1.875V2.68401ZM2.375 9.14476C1.47754 9.14476 0.75 9.8723 0.75 10.7698V17.2004H1.91617V14.4305C1.91617 14.2234 2.08406 14.0555 2.29117 14.0555C2.49827 14.0555 2.66617 14.2234 2.66617 14.4305V17.2004H9.4054V11.9749C9.4054 11.7678 9.57329 11.5999 9.7804 11.5999C9.9875 11.5999 10.1554 11.7678 10.1554 11.9749V17.2004H11.497V10.7698C11.497 9.8723 10.7695 9.14476 9.87201 9.14476H8.22544L6.4985 11.4122V14.4305C6.4985 14.6376 6.33061 14.8055 6.1235 14.8055C5.9164 14.8055 5.7485 14.6376 5.7485 14.4305V11.4122L4.02157 9.14476H2.375ZM6.1235 10.6667L4.96432 9.14476H7.28268L6.1235 10.6667Z" fill="black"/>
</svg>
