<svg width="20" height="20" viewBox="0 0 20 20" fill="none" xmlns="http://www.w3.org/2000/svg">
<path d="M9.625 2.5C9.625 2.70711 9.79289 2.875 10 2.875C10.2071 2.875 10.375 2.70711 10.375 2.5H9.625ZM2.5 10.375C2.70711 10.375 2.875 10.2071 2.875 10C2.875 9.79289 2.70711 9.625 2.5 9.625V10.375ZM10.375 17.5C10.375 17.2929 10.2071 17.125 10 17.125C9.79289 17.125 9.625 17.2929 9.625 17.5H10.375ZM17.5 9.625C17.2929 9.625 17.125 9.79289 17.125 10C17.125 10.2071 17.2929 10.375 17.5 10.375V9.625ZM10.375 5C10.375 4.79289 10.2071 4.625 10 4.625C9.79289 4.625 9.625 4.79289 9.625 5H10.375ZM10 10H9.625C9.625 10.0995 9.66451 10.1948 9.73483 10.2652L10 10ZM14.2348 14.7652C14.3813 14.9116 14.6187 14.9116 14.7652 14.7652C14.9116 14.6187 14.9116 14.3813 14.7652 14.2348L14.2348 14.7652ZM18.625 10C18.625 14.7635 14.7635 18.625 10 18.625V19.375C15.1777 19.375 19.375 15.1777 19.375 10H18.625ZM10 18.625C5.23654 18.625 1.375 14.7635 1.375 10H0.625C0.625 15.1777 4.82233 19.375 10 19.375V18.625ZM1.375 10C1.375 5.23654 5.23654 1.375 10 1.375V0.625C4.82233 0.625 0.625 4.82233 0.625 10H1.375ZM10 1.375C14.7635 1.375 18.625 5.23654 18.625 10H19.375C19.375 4.82233 15.1777 0.625 10 0.625V1.375ZM9.625 1V2.5H10.375V1H9.625ZM1 10.375H2.5V9.625H1V10.375ZM10.375 19V17.5H9.625V19H10.375ZM19 9.625H17.5V10.375H19V9.625ZM9.625 5V10H10.375V5H9.625ZM9.73483 10.2652L14.2348 14.7652L14.7652 14.2348L10.2652 9.73483L9.73483 10.2652Z" fill="black"/>
</svg>
