<svg width="16" height="20" viewBox="0 0 16 20" fill="none" xmlns="http://www.w3.org/2000/svg">
<path d="M4.5 1H2C1.44772 1 1 1.44772 1 2V18C1 18.5523 1.44772 19 2 19H14C14.5523 19 15 18.5523 15 18V2C15 1.44772 14.5523 1 14 1H11.5M4.5 1L4.90625 2.1607C5.18701 2.96287 5.94407 3.5 6.79396 3.5H9.20604C10.0559 3.5 10.813 2.96287 11.0938 2.1607L11.5 1M4.5 1H11.5M2.75 7H8.875M2.75 9.5H8.875M2.75 12H8.875M2.75 15H8.875M11.5 7H11.9375M11.5 9.5H11.9375M11.5 12H11.9375M11.5 15H11.9375" stroke="black" stroke-width="0.75" stroke-linecap="round" stroke-linejoin="round"/>
</svg>
